<svg width="478" height="165" viewBox="0 0 478 165" fill="none" xmlns="http://www.w3.org/2000/svg">
    <rect x="131.347" y="0.345658" width="214.308" height="87.7971" stroke="white" stroke-width="0.691316"/>
    <path d="M289.133 49.0821V19.3555L266.499 54.6126H292.589" stroke="white" stroke-width="1.03697"/>
    <ellipse cx="313.329" cy="58.4141" rx="15.209" ry="14.8633" stroke="white" stroke-width="1.03697"/>
    <path d="M321.113 40.7407C323.954 38.3967 325.772 34.7977 325.772 30.762C325.772 23.6986 320.201 17.9727 313.329 17.9727C306.456 17.9727 300.885 23.6986 300.885 30.762C300.885 34.7977 302.704 38.3967 305.545 40.7407" stroke="white" stroke-width="1.03697"/>
    <path d="M289.133 60.1445L289.133 72.5882" stroke="white" stroke-width="1.03697"/>
    <path d="M251.981 0.347656V87.7991" stroke="white" stroke-width="0.691316"/>
    <path d="M150.595 16.8907H152.575L161.726 38.2765H161.759L168.339 20.7234L168.339 23.5291L162.408 40.0613H161.077L152.023 19.0326H151.991V40.0613H150.595V16.8907Z" fill="white"/>
    <rect x="170.69" y="16.594" width="1.16348" height="23.2697" fill="white"/>
    <path d="M217.553 16.8907H219.533L229.599 35.1739L229.602 37.7344L218.981 19.0326H218.949V40.0613H217.553V16.8907Z" fill="white"/>
    <path d="M232.306 16.594H233.47V40.1679H232.306L232.306 16.594Z" fill="white"/>
    <path d="M192.078 32.5619C191.318 34.0828 191.089 34.463 189.813 35.928C188.44 37.5048 186.755 38.4945 184.887 38.4945C180.37 38.4945 178.01 33.0596 178.01 28.0775C178.01 22.1896 181.807 18.2644 184.887 18.2644V18.2644C188.88 18.4371 191.068 22.8516 193.285 26.1776C195.51 29.5156 198.157 33.5973 199.974 35.928C201.203 37.5048 202.417 38.6455 204.798 38.6455C207.775 38.6455 211.47 35.1732 211.47 28.3794C211.47 21.5857 207.98 18.1134 204.798 18.1134C202.253 18.1134 201.026 19.1422 199.974 20.5289C198.922 21.9156 197.781 24.5772 197.781 24.5772" stroke="white" stroke-width="1.21672"/>
    <mask id="path-12-outside-1_40_32781" maskUnits="userSpaceOnUse" x="148.592" y="46.4062" width="18" height="27" fill="black">
        <rect fill="white" x="148.592" y="46.4062" width="18" height="27"/>
        <path d="M149.711 66.484L150.682 66.276C152.138 70.401 155.084 72.0995 158.585 72.0995C163.022 72.0995 165.414 69.1531 165.414 66.796C165.414 63.0176 160.908 61.1458 157.649 59.9672C153.559 58.4073 150.543 56.6741 150.543 53.6237C150.543 49.9493 153.836 47.2802 158.481 47.2802C162.606 47.2802 165.31 49.8107 166.177 52.7918L165.206 53.0344C164.27 49.984 161.636 48.1468 158.481 48.1468C154.391 48.1468 151.548 50.504 151.548 53.4157C151.548 56.5008 155.084 58.026 158.724 59.3432C163.993 61.2844 166.454 63.6069 166.454 66.5187C166.454 70.5743 162.953 73.0354 158.62 73.0354C153.94 73.0354 151.202 70.817 149.711 66.484Z"/>
    </mask>
    <path d="M149.711 66.484L150.682 66.276C152.138 70.401 155.084 72.0995 158.585 72.0995C163.022 72.0995 165.414 69.1531 165.414 66.796C165.414 63.0176 160.908 61.1458 157.649 59.9672C153.559 58.4073 150.543 56.6741 150.543 53.6237C150.543 49.9493 153.836 47.2802 158.481 47.2802C162.606 47.2802 165.31 49.8107 166.177 52.7918L165.206 53.0344C164.27 49.984 161.636 48.1468 158.481 48.1468C154.391 48.1468 151.548 50.504 151.548 53.4157C151.548 56.5008 155.084 58.026 158.724 59.3432C163.993 61.2844 166.454 63.6069 166.454 66.5187C166.454 70.5743 162.953 73.0354 158.62 73.0354C153.94 73.0354 151.202 70.817 149.711 66.484Z" fill="white"/>
    <path d="M149.711 66.484L149.683 66.3501L149.532 66.3825L149.582 66.5285L149.711 66.484ZM150.682 66.276L150.811 66.2304L150.771 66.1169L150.653 66.1422L150.682 66.276ZM157.649 59.9672L157.6 60.0951L157.603 60.0959L157.649 59.9672ZM166.177 52.7918L166.21 52.9246L166.348 52.8901L166.308 52.7536L166.177 52.7918ZM165.206 53.0344L165.075 53.0746L165.113 53.1987L165.239 53.1672L165.206 53.0344ZM158.724 59.3432L158.771 59.2148L158.77 59.2145L158.724 59.3432ZM149.74 66.6178L150.71 66.4098L150.653 66.1422L149.683 66.3501L149.74 66.6178ZM150.553 66.3216C151.289 68.4065 152.405 69.8879 153.789 70.8471C155.172 71.8061 156.812 72.2364 158.585 72.2364V71.9626C156.857 71.9626 155.274 71.5436 153.945 70.6221C152.616 69.7009 151.531 68.2705 150.811 66.2304L150.553 66.3216ZM158.585 72.2364C163.083 72.2364 165.551 69.2426 165.551 66.796H165.277C165.277 69.0636 162.961 71.9626 158.585 71.9626V72.2364ZM165.551 66.796C165.551 64.8437 164.384 63.395 162.833 62.295C161.282 61.1956 159.325 60.4278 157.696 59.8385L157.603 60.0959C159.232 60.6852 161.157 61.4426 162.674 62.5183C164.191 63.5934 165.277 64.9699 165.277 66.796H165.551ZM157.698 59.8393C155.655 59.0602 153.895 58.243 152.648 57.2474C151.404 56.2552 150.68 55.0952 150.68 53.6237H150.406C150.406 55.2027 151.19 56.4345 152.477 57.4614C153.76 58.485 155.553 59.3143 157.6 60.0951L157.698 59.8393ZM150.68 53.6237C150.68 50.0515 153.882 47.4171 158.481 47.4171V47.1433C153.79 47.1433 150.406 49.8472 150.406 53.6237H150.68ZM158.481 47.4171C162.542 47.4171 165.195 49.9042 166.045 52.83L166.308 52.7536C165.425 49.7172 162.67 47.1433 158.481 47.1433V47.4171ZM166.143 52.659L165.173 52.9016L165.239 53.1672L166.21 52.9246L166.143 52.659ZM165.337 52.9943C164.382 49.8835 161.693 48.0099 158.481 48.0099V48.2837C161.579 48.2837 164.158 50.0845 165.075 53.0746L165.337 52.9943ZM158.481 48.0099C154.349 48.0099 151.412 50.3987 151.412 53.4157H151.685C151.685 50.6092 154.433 48.2837 158.481 48.2837V48.0099ZM151.412 53.4157C151.412 55.0208 152.335 56.2098 153.693 57.1548C155.049 58.0979 156.858 58.8137 158.677 59.4719L158.77 59.2145C156.95 58.5556 155.172 57.8501 153.849 56.9301C152.53 56.0119 151.685 54.8957 151.685 53.4157H151.412ZM158.676 59.4717C161.303 60.4394 163.216 61.4976 164.471 62.6671C165.723 63.8333 166.317 65.1073 166.317 66.5187H166.591C166.591 65.0183 165.955 63.6752 164.658 62.4668C163.365 61.2619 161.413 60.1883 158.771 59.2148L158.676 59.4717ZM166.317 66.5187C166.317 68.5029 165.462 70.0933 164.077 71.1906C162.689 72.2902 160.762 72.8986 158.62 72.8986V73.1723C160.811 73.1723 162.801 72.5502 164.247 71.4052C165.695 70.2581 166.591 68.59 166.591 66.5187H166.317ZM158.62 72.8986C156.302 72.8986 154.479 72.3496 153.052 71.2752C151.624 70.2002 150.58 68.5888 149.841 66.4395L149.582 66.5285C150.333 68.7121 151.403 70.3765 152.887 71.4939C154.372 72.6121 156.258 73.1723 158.62 73.1723V72.8986Z" fill="white" mask="url(#path-12-outside-1_40_32781)"/>
    <path d="M215.33 60.3329C215.33 66.9803 212.144 72.369 206.48 72.369C200.816 72.369 197.63 66.9803 197.63 60.3329C197.63 53.6856 200.816 48.2969 206.48 48.2969C212.144 48.2969 215.33 53.6856 215.33 60.3329Z" stroke="white" stroke-width="1.29276"/>
    <path d="M173.009 48.3009V73.081" stroke="white" stroke-width="1.29276"/>
    <path d="M190.356 48.3009V73.081" stroke="white" stroke-width="1.29276"/>
    <path d="M173.363 59.9806H187.877" stroke="white" stroke-width="1.29276"/>
    <path d="M234.729 48.2969L219.1 48.2969" stroke="white" stroke-width="1.29276"/>
    <path d="M226.889 51.1292L226.889 72.3692" stroke="white" stroke-width="1.29276"/>
    <path d="M37.32 146.124H0.68V144.404H37.32V146.124ZM63.36 160.924H67.56C70.72 160.924 71.64 160.204 71.88 157.404C72.08 155.444 72.72 145.924 72.8 144.004H67.28C65.92 153.364 63.28 158.564 56.48 164.004L55.24 163.124C61.92 157.844 64.4 153.044 65.92 144.004H60.16C58.76 150.324 55.72 155.404 49.72 160.004L48.6 159.124C54.56 154.564 57.36 149.884 58.8 144.004H54.8V142.844L68.6 133.084H54.6V131.644H71.32V133.124L57.72 142.644H74.32C74.24 144.364 73.56 155.604 73.36 157.884C73.08 161.444 71.84 162.364 67.88 162.364H63.6L63.36 160.924ZM52.8 153.844C51.52 154.244 42.16 157.324 40.92 157.764L40.6 156.324C41.2 156.164 43.8 155.324 46.48 154.444V140.244H41.12V138.804H46.48V128.444H48V138.804H53.32V140.244H48V153.964L52.64 152.404L52.8 153.844ZM86.28 131.724H111.68V148.724H86.28V131.724ZM87.84 133.204V147.244H110.12V133.204H87.84ZM94.48 153.084C91.4 156.684 86.56 161.084 82.44 163.844L81.24 162.484C85.36 159.804 90.12 155.564 93.28 151.964L94.48 153.084ZM115.2 163.684C112.24 160.884 106.72 155.924 103.48 153.244L104.64 152.044C107.84 154.684 113.52 159.684 116.4 162.324L115.2 163.684ZM154.04 140.564C150.72 140.764 146.6 141.004 142.44 141.164V144.524H152.32V149.804H142.44V152.924H153.8V160.244C153.8 162.724 153.04 163.364 149.88 163.364H146.52L146.32 162.324H149.52C151.96 162.324 152.44 161.844 152.44 160.124V153.964H142.44V158.644L147.4 158.364L146.08 156.004L147.04 155.644C147.8 156.964 148.96 159.164 149.76 160.684L148.76 161.044L147.92 159.364C146.04 159.484 135.16 160.044 133.72 160.084L133.68 158.964C134.64 158.964 137.92 158.844 141.16 158.684V153.964H131.2V164.084H129.84V152.924H141.16V149.804H131.28V144.524H141.16V141.204C136.68 141.364 132.32 141.484 129.08 141.564L129 140.444C135.92 140.364 146.96 139.964 153.96 139.484L154.04 140.564ZM153.64 136.884H126.48V142.484C126.48 152.564 125.6 157.004 122.08 164.244L120.64 163.684C124.16 156.804 125.04 152.164 125.04 142.444V130.884H153.64V136.884ZM126.48 132.004V135.804H152.28V132.004H126.48ZM151 145.524H142.44V148.804H151V145.524ZM132.64 145.524V148.804H141.16V145.524H132.64ZM196.92 145.724H180.4V158.244C180.4 161.644 179.2 162.724 175.16 162.724H169.68L169.36 161.204H174.76C177.92 161.204 178.72 160.364 178.72 157.804V145.724H161V144.244H178.72V133.404H163.92V131.884H194.04V133.404H180.4V144.244H196.92V145.724ZM218.12 164.524V151.364H205.88V154.644H204.28V136.964H218.12V128.484H219.72V136.964H233.68V154.564H232.08V151.364H219.72V164.524H218.12ZM232.08 138.484H219.72V149.844H232.08V138.484ZM205.88 138.484V149.844H218.12V138.484H205.88ZM276.68 153.644H260.4V158.964C260.4 162.324 259.36 163.124 255.52 163.124H250.48L250.16 161.604H255.2C258.16 161.604 258.8 161.124 258.8 158.524V153.644H241.32V152.164H258.8V149.724C260.32 148.924 265.44 146.044 266.52 144.724H247.64V143.284H269.12V144.644C267.84 146.124 262.28 149.284 260.4 150.284V152.164H276.68V153.644ZM243.36 143.284V136.284H265.44C266.92 134.364 269.24 130.884 270.44 128.884L271.88 129.604C270.72 131.404 268.6 134.444 267.24 136.284H274.6V143.284H273.08V137.724H244.88V143.284H243.36ZM259.72 135.764C259.12 134.524 256.84 130.284 256.12 129.004L257.48 128.444C258.12 129.484 260.48 133.884 261.12 135.124L259.72 135.764ZM250.08 135.844C249.28 134.564 246.84 130.764 246 129.524L247.36 128.884C248.12 129.964 250.72 133.884 251.44 135.124L250.08 135.844ZM290.84 130.604C290.16 132.964 289.44 135.084 288.64 137.044H299V128.564H300.6V137.044H315.44V138.564H300.6V148.044H314.08V149.524H300.6V160.204H316.96V161.724H281.88V160.204H299V149.524H285.44V148.044H299V138.564H288C286.72 141.364 285.24 143.924 283.4 146.524L282 145.724C285.44 141.004 287.68 136.284 289.32 130.284L290.84 130.604ZM323.56 164.564V135.244H327.72C328.44 133.284 329.2 130.084 329.6 128.124L331.2 128.364C330.8 130.244 330.04 133.324 329.4 135.244H336.16V161.204H325.04V164.564H323.56ZM325.04 159.684H334.68V148.844H325.04V159.684ZM325.04 136.764V147.324H334.68V136.764H325.04ZM343.12 161.124H348C351.4 161.124 352.48 160.364 352.56 157.324L353.2 136.884H342.52C341.6 138.964 340.52 140.964 339.4 142.724L338.04 141.924C340.72 137.884 343 132.204 344.04 127.924L345.56 128.244C345 130.444 344.16 132.924 343.16 135.364H354.8C354.76 137.084 354.12 156.524 354.04 158.044C353.92 161.644 352.52 162.644 348.48 162.644H343.4L343.12 161.124ZM346.8 152.084C345.08 149.604 342.12 145.604 340.44 143.484L341.56 142.604C343.32 144.804 346.32 148.724 348.12 151.204L346.8 152.084ZM365.2 131.044H392.8V143.484H379.76V148.124H394.56V149.404H379.76V154.084H396.84V155.364H361.2V154.084H378.32V149.404H363.44V148.124H378.32V143.484H365.2V131.044ZM366.64 132.324V142.204H378.32V132.324H366.64ZM391.36 132.324H379.76V142.204H391.36V132.324ZM367.88 157.444C366.96 159.764 365.2 162.604 363.76 164.684L362.32 163.964C363.92 161.844 365.64 159.084 366.56 156.884L367.88 157.444ZM394.12 164.524C393.04 162.564 391.28 159.764 389.84 157.764L391.08 157.124C392.52 159.044 394.36 161.884 395.48 163.804L394.12 164.524ZM374.56 164.364C374.16 162.524 373.36 159.404 372.88 157.724L374.28 157.444C374.8 159.124 375.68 162.364 376.08 164.124L374.56 164.364ZM384.16 164.164C383.56 162.604 382.24 159.484 381.36 157.764L382.72 157.324C383.6 159.044 385 162.164 385.6 163.764L384.16 164.164ZM388.4 134.684C387.6 135.964 385.36 139.004 384.12 140.484L383 139.684C384.32 138.204 386.48 135.244 387.28 133.964L388.4 134.684ZM373.68 140.404C372.64 138.684 370.52 135.764 369.64 134.684L370.76 134.004C371.6 135.044 373.76 138.044 374.8 139.684L373.68 140.404ZM407.48 164.124V153.124H430.68V164.124H429.16V161.884H409V164.124H407.48ZM436.8 151.644C429.48 150.684 423.68 149.364 418.84 147.444C413.6 149.564 407.52 151.084 400.8 152.084L400.44 150.644C406.56 149.844 412.2 148.524 417.08 146.724C414.2 145.444 411.68 143.924 409.36 142.084C407.48 143.564 405.36 144.924 403.2 146.084L402.4 144.924C406.72 142.644 411.36 139.004 413.72 135.964L415.04 136.604C414.36 137.484 413.56 138.364 412.68 139.204H430.68V140.404C427.92 142.884 424.48 144.964 420.48 146.724C424.92 148.284 430.28 149.404 437.08 150.204L436.8 151.644ZM409 154.404V160.604H429.16V154.404H409ZM411.36 140.444C411.04 140.724 410.72 141.004 410.4 141.244C412.84 143.204 415.56 144.804 418.76 146.084C422.56 144.564 425.8 142.644 428.32 140.444H411.36ZM403.76 139.524V132.964H434.4V139.564H432.88V134.324H405.28V139.524H403.76ZM419 132.484C418.56 131.604 417.2 129.124 416.68 128.324L418.2 127.764C418.72 128.564 420.16 131.124 420.56 131.924L419 132.484ZM447.4 164.444V141.724C445.88 146.124 443.72 150.924 441.28 154.404L440.48 153.124C443.32 149.084 445.92 143.204 447.32 138.244H441.12V136.804H447.4V128.324H448.84V136.804H455V138.244H448.84V164.444H447.4ZM473.44 164.124C472.96 163.004 472.44 161.684 471.84 160.364C469.56 160.484 459.56 161.324 454.8 161.884L454.4 160.404C455.48 159.964 456.04 159.684 456.4 159.124C459.08 154.604 461.76 148.404 463.68 142.644L465.12 143.044C463.2 148.884 460.52 155.004 457.76 159.844L471.16 158.884C469.84 155.924 468.44 152.804 467.44 150.684L468.8 150.204C470.44 153.604 473.32 159.844 474.92 163.564L473.44 164.124ZM475.8 147.124C471.36 142.204 468.72 136.844 466.72 128.924L468.08 128.604C470 136.244 472.72 141.484 477.08 146.284L475.8 147.124ZM462.88 130.444C461.2 136.204 458.48 141.564 455.16 145.844L454.04 144.884C457.36 140.684 459.84 135.724 461.44 130.124L462.88 130.444ZM454.48 150.564C453.16 148.844 450.52 145.644 449.24 144.124L450.16 143.244C451.56 144.764 454.28 148.004 455.56 149.644L454.48 150.564Z" fill="white"/>
</svg>
